Coordinates
version=1
nRows=37
nColumns=24
inDegrees=yes

Units are S.I. units (second, meters, Newtons, ...)
If the header above contains a line with 'inDegrees', this indicates whether rotational values are in degrees (yes) or radians (no).

endheader
time	pelvis_tilt	pelvis_list	pelvis_rotation	pelvis_tx	pelvis_ty	pelvis_tz	hip_flexion_r	hip_adduction_r	hip_rotation_r	knee_angle_r	ankle_angle_r	subtalar_angle_r	mtp_angle_r	hip_flexion_l	hip_adduction_l	hip_rotation_l	knee_angle_l	ankle_angle_l	subtalar_angle_l	mtp_angle_l	lumbar_extension	lumbar_bending	lumbar_rotation
4.600000	7.030210	1.281353	-181.579101	0.272021	0.574905	-1.226603	64.308438	-28.501110	-12.761677	-103.418851	41.563326	13.284017	0.000000	65.860680	-35.453836	-7.219822	-101.779320	40.686556	19.265693	0.000000	-10.666435	1.351387	3.707321
4.605000	6.982855	1.280453	-181.559494	0.272076	0.574757	-1.226734	64.338127	-28.553583	-13.010987	-103.581720	41.204457	12.272761	0.000000	65.854954	-35.454450	-7.179977	-101.807910	40.679593	19.229519	0.000000	-10.671081	1.291073	3.920630
4.610000	6.993639	1.286822	-181.544404	0.272153	0.574592	-1.226894	64.361762	-28.536155	-13.013244	-103.614871	41.248424	12.248574	0.000000	65.910438	-35.453874	-7.128853	-101.826981	40.684075	19.247074	0.000000	-10.594621	1.184974	4.293485
4.615000	6.985792	1.274398	-181.514183	0.272235	0.574441	-1.227070	64.370320	-28.541208	-13.001791	-103.647413	41.252346	12.244991	0.000000	65.930012	-35.435020	-7.102625	-101.829743	40.673880	19.257672	0.000000	-10.603424	1.164009	4.320914
4.620000	6.986421	1.239926	-181.473715	0.272264	0.574277	-1.227253	64.391924	-28.570554	-12.975212	-103.678347	41.284209	12.239243	0.000000	65.944579	-35.398761	-7.103052	-101.837503	40.643175	19.277016	0.000000	-10.660055	1.226941	4.019004
4.625000	6.976210	1.216743	-181.450578	0.272336	0.574104	-1.227479	64.416879	-28.574396	-12.953756	-103.728496	41.304653	12.233845	0.000000	65.960248	-35.384397	-7.086653	-101.858770	40.645324	19.292132	0.000000	-10.708346	1.286780	3.787699
4.630000	6.964932	1.209632	-181.447297	0.272371	0.573996	-1.227594	64.437363	-28.575698	-12.948379	-103.777200	41.315095	12.220340	0.000000	65.970883	-35.382496	-7.062145	-101.876730	40.649412	19.289266	0.000000	-10.726815	1.291031	3.803433
4.635000	6.959441	1.199765	-181.451367	0.272391	0.573894	-1.227751	64.456551	-28.552856	-12.929299	-103.812745	41.353413	12.141184	0.000000	65.985547	-35.393381	-7.039415	-101.904031	40.632308	19.289868	0.000000	-10.732261	1.294887	3.805155
4.640000	6.953865	1.192262	-181.441691	0.272453	0.573801	-1.227968	64.468097	-28.536486	-12.921733	-103.837358	41.343636	12.112828	0.000000	65.997044	-35.392654	-7.030220	-101.897126	40.625129	19.279200	0.000000	-10.745087	1.294981	3.786298
4.645000	6.948525	1.175579	-181.421571	0.272530	0.573720	-1.228182	64.474972	-28.522586	-12.897757	-103.857425	41.354375	12.097415	0.000000	66.007510	-35.377116	-7.008887	-101.897318	40.609750	19.296951	0.000000	-10.754603	1.277167	3.770854
4.650000	6.949692	1.152076	-181.396631	0.272554	0.573666	-1.228306	64.494793	-28.538895	-12.882893	-103.880379	41.390535	12.040812	0.000000	66.007932	-35.347624	-7.006707	-101.897297	40.616529	19.317151	0.000000	-10.750179	1.255910	3.763756
4.655000	6.929652	1.172003	-181.397774	0.272616	0.573613	-1.228440	64.482903	-28.508375	-12.901900	-103.905150	41.389469	12.016274	0.000000	66.014361	-35.372217	-6.981965	-101.838412	40.732361	19.285564	0.000000	-10.693663	1.136107	4.190500
4.660000	6.927111	1.160436	-181.406623	0.272642	0.573566	-1.228564	64.504942	-28.486829	-12.880034	-103.925487	41.387358	11.995533	0.000000	66.014437	-35.374020	-7.003176	-101.843497	40.583368	19.190425	0.000000	-10.694327	1.120657	4.247111
4.665000	6.917401	1.146986	-181.399651	0.272696	0.573511	-1.228713	64.517305	-28.479102	-12.863314	-103.948891	41.397261	11.983243	0.000000	66.017868	-35.369968	-6.978957	-101.880332	40.590105	19.190498	0.000000	-10.701485	1.116915	4.240343
4.670000	6.947048	1.108907	-181.392177	0.272736	0.573466	-1.229012	64.565824	-28.456379	-12.827277	-103.959739	41.417235	11.916636	0.000000	66.029057	-35.365431	-7.005556	-101.855480	40.587848	19.235778	0.000000	-10.791922	1.261985	3.671031
4.675000	6.949074	1.089342	-181.365201	0.272802	0.573426	-1.229204	64.576189	-28.452454	-12.808861	-103.970251	41.434852	11.892136	0.000000	66.041991	-35.344920	-7.000881	-101.841215	40.576644	19.249611	0.000000	-10.801166	1.242992	3.636478
4.680000	6.955693	1.077136	-181.360465	0.272868	0.573413	-1.229373	64.596223	-28.437672	-12.804593	-103.979036	41.448326	11.845283	0.000000	66.048686	-35.346369	-7.009524	-101.772076	40.654925	19.257874	0.000000	-10.791231	1.245295	3.632710
4.685000	6.948578	1.070693	-181.372526	0.272892	0.573426	-1.229500	64.607493	-28.412052	-12.794737	-103.995379	41.430198	11.810849	0.000000	66.050265	-35.355023	-6.983739	-101.829546	40.546564	19.270435	0.000000	-10.790450	1.238650	3.683333
4.690000	6.944839	1.095197	-181.386137	0.273010	0.573387	-1.229600	64.611700	-28.369414	-12.812625	-104.006065	41.436729	11.766240	0.000000	66.069812	-35.380512	-6.976348	-101.741885	40.595283	19.185289	0.000000	-10.699770	1.113280	4.185338
4.695000	6.971773	1.052658	-181.382061	0.272990	0.573423	-1.229758	64.647424	-28.371259	-12.778119	-103.993782	41.431291	11.721828	0.000000	66.071684	-35.368540	-6.995032	-101.794652	40.469782	19.224544	0.000000	-10.777343	1.247284	3.678583
4.700000	6.973628	1.039795	-181.355574	0.273077	0.573420	-1.229921	64.644540	-28.375344	-12.780859	-103.990690	41.424124	11.726058	0.000000	66.076289	-35.339433	-6.988547	-101.768084	40.465903	19.224858	0.000000	-10.771032	1.226620	3.680796
4.705000	6.949135	1.036179	-181.341560	0.273151	0.573449	-1.230015	64.616197	-28.380710	-12.793108	-103.986870	41.424581	11.748743	0.000000	66.059829	-35.329946	-6.980705	-101.754722	40.443025	19.209720	0.000000	-10.696736	1.067025	4.139548
4.710000	6.952959	1.030256	-181.343807	0.273180	0.573527	-1.230137	64.624119	-28.369579	-12.794387	-103.987311	41.438320	11.736093	0.000000	66.053471	-35.332949	-6.986347	-101.730924	40.435593	19.203305	0.000000	-10.700546	1.081811	4.101809
4.715000	6.963087	1.007802	-181.338551	0.273212	0.573584	-1.230289	64.647125	-28.370948	-12.789001	-103.995016	41.440009	11.692854	0.000000	66.051290	-35.322732	-6.996847	-101.714716	40.407389	19.210041	0.000000	-10.767808	1.244150	3.609100
4.720000	6.963943	0.997597	-181.332944	0.273233	0.573644	-1.230407	64.641848	-28.372830	-12.797172	-103.987160	41.440652	11.689039	0.000000	66.043416	-35.323289	-7.006512	-101.701029	40.402083	19.210811	0.000000	-10.758925	1.254956	3.589988
4.725000	6.938740	0.994442	-181.314096	0.273328	0.573684	-1.230459	64.609237	-28.391041	-12.819288	-103.983338	41.435788	11.679668	0.000000	66.029699	-35.307970	-6.997796	-101.688966	40.349188	19.196954	0.000000	-10.710824	1.116524	3.982624
4.730000	6.942347	0.984516	-181.308509	0.273358	0.573751	-1.230570	64.599160	-28.386913	-12.827107	-103.959210	41.434119	11.679530	0.000000	66.017179	-35.309716	-7.014021	-101.665329	40.337778	19.200482	0.000000	-10.700940	1.115265	3.970000
4.735000	6.920356	0.958601	-181.298365	0.273371	0.573837	-1.230683	64.574657	-28.396627	-12.816577	-103.948643	41.455442	11.668239	0.000000	65.972514	-35.305043	-7.044696	-101.646951	40.287794	19.219186	0.000000	-10.757449	1.152120	3.783791
4.740000	6.903347	0.969493	-181.294134	0.273405	0.573994	-1.230728	64.533647	-28.389870	-12.847850	-103.922712	41.455244	11.692478	0.000000	65.946178	-35.314559	-7.044040	-101.613219	40.293399	19.214329	0.000000	-10.677301	1.025277	4.206737
4.745000	6.905296	0.963845	-181.295092	0.273437	0.574160	-1.230837	64.522751	-28.384629	-12.867656	-103.900020	41.454469	11.689509	0.000000	65.928530	-35.322613	-7.057319	-101.578125	40.281016	19.217932	0.000000	-10.664635	1.017687	4.211501
4.750000	6.880669	0.941440	-181.288441	0.273535	0.574324	-1.231004	64.497608	-28.377978	-12.864245	-103.878688	41.447718	11.649188	0.000000	65.877954	-35.322345	-7.089248	-101.530612	40.236563	19.245053	0.000000	-10.682183	1.026027	4.135326
4.755000	6.891563	0.907851	-181.270714	0.273575	0.574458	-1.231176	64.494618	-28.391043	-12.856903	-103.851278	41.446739	11.650587	0.000000	65.850417	-35.312691	-7.134866	-101.484893	40.201969	19.282830	0.000000	-10.749138	1.138298	3.688884
4.760000	6.903055	0.902636	-181.265936	0.273614	0.574628	-1.231283	64.479828	-28.387684	-12.888439	-103.814627	41.442169	11.651064	0.000000	65.839914	-35.318942	-7.157928	-101.444091	40.190845	19.289464	0.000000	-10.741450	1.124525	3.696051
4.765000	6.875911	0.895468	-181.291026	0.273605	0.574843	-1.231365	64.446675	-28.367464	-12.893224	-103.793009	41.435212	11.599269	0.000000	65.773531	-35.361740	-7.205051	-101.420487	40.132583	19.334267	0.000000	-10.751099	1.144121	3.693116
4.770000	6.855105	0.899035	-181.309482	0.273600	0.575070	-1.231373	64.411469	-28.351764	-12.911244	-103.766835	41.422951	11.578433	0.000000	65.719148	-35.386337	-7.246155	-101.362746	40.145862	19.310100	0.000000	-10.705501	1.075558	3.960182
4.775000	6.840587	0.895964	-181.321186	0.273624	0.575293	-1.231439	64.375961	-28.341620	-12.930460	-103.727688	41.407041	11.574217	0.000000	65.674871	-35.409457	-7.276952	-101.332624	40.128207	19.322906	0.000000	-10.675478	1.016378	4.123700
4.780000	6.842889	0.868167	-181.320096	0.273656	0.575557	-1.231598	64.355391	-28.334715	-12.927658	-103.673966	41.399054	11.566627	0.000000	65.615239	-35.412509	-7.349611	-101.260057	40.093945	19.346599	0.000000	-10.707949	1.106785	3.773602
